TITLE ""
FILE "P1Q_t_0388-0397.mp3" MP3
  TRACK 01 AUDIO
    TITLE "P1Q_t_0388-0397_01"
    INDEX 01 00:00:00
  TRACK 02 AUDIO
    TITLE "P1Q_t_0388-0397_02"
    INDEX 01 00:01:27
  TRACK 03 AUDIO
    TITLE "P1Q_t_0388-0397_03"
    INDEX 01 00:01:49
  TRACK 04 AUDIO
    TITLE "P1Q_t_0388-0397_04"
    INDEX 01 00:04:14
  TRACK 05 AUDIO
    TITLE "P1Q_t_0388-0397_05"
    INDEX 01 00:04:32
  TRACK 06 AUDIO
    TITLE "P1Q_t_0388-0397_06"
    INDEX 01 00:08:74
  TRACK 07 AUDIO
    TITLE "P1Q_t_0388-0397_07"
    INDEX 01 00:09:45
  TRACK 08 AUDIO
    TITLE "P1Q_t_0388-0397_08"
    INDEX 01 00:10:56
  TRACK 09 AUDIO
    TITLE "P1Q_t_0388-0397_09"
    INDEX 01 00:11:02
  TRACK 10 AUDIO
    TITLE "P1Q_t_0388-0397_10"
    INDEX 01 00:14:71
  TRACK 11 AUDIO
    TITLE "P1Q_t_0388-0397_11"
    INDEX 01 00:15:14
  TRACK 12 AUDIO
    TITLE "P1Q_t_0388-0397_12"
    INDEX 01 00:20:37
  TRACK 13 AUDIO
    TITLE "P1Q_t_0388-0397_13"
    INDEX 01 00:21:07
  TRACK 14 AUDIO
    TITLE "P1Q_t_0388-0397_14"
    INDEX 01 00:22:31
  TRACK 15 AUDIO
    TITLE "P1Q_t_0388-0397_15"
    INDEX 01 00:22:53
  TRACK 16 AUDIO
    TITLE "P1Q_t_0388-0397_16"
    INDEX 01 00:26:66
  TRACK 17 AUDIO
    TITLE "P1Q_t_0388-0397_17"
    INDEX 01 00:27:09
  TRACK 18 AUDIO
    TITLE "P1Q_t_0388-0397_18"
    INDEX 01 00:33:04
  TRACK 19 AUDIO
    TITLE "P1Q_t_0388-0397_19"
    INDEX 01 00:33:51
  TRACK 20 AUDIO
    TITLE "P1Q_t_0388-0397_20"
    INDEX 01 00:35:03
  TRACK 21 AUDIO
    TITLE "P1Q_t_0388-0397_21"
    INDEX 01 00:35:28
  TRACK 22 AUDIO
    TITLE "P1Q_t_0388-0397_22"
    INDEX 01 00:37:43
  TRACK 23 AUDIO
    TITLE "P1Q_t_0388-0397_23"
    INDEX 01 00:37:62
  TRACK 24 AUDIO
    TITLE "P1Q_t_0388-0397_24"
    INDEX 01 00:45:19
  TRACK 25 AUDIO
    TITLE "P1Q_t_0388-0397_25"
    INDEX 01 00:45:64
  TRACK 26 AUDIO
    TITLE "P1Q_t_0388-0397_26"
    INDEX 01 00:46:65
  TRACK 27 AUDIO
    TITLE "P1Q_t_0388-0397_27"
    INDEX 01 00:47:12
  TRACK 28 AUDIO
    TITLE "P1Q_t_0388-0397_28"
    INDEX 01 00:49:40
  TRACK 29 AUDIO
    TITLE "P1Q_t_0388-0397_29"
    INDEX 01 00:49:60
  TRACK 30 AUDIO
    TITLE "P1Q_t_0388-0397_30"
    INDEX 01 00:54:22
  TRACK 31 AUDIO
    TITLE "P1Q_t_0388-0397_31"
    INDEX 01 00:54:65
  TRACK 32 AUDIO
    TITLE "P1Q_t_0388-0397_32"
    INDEX 01 00:55:72
  TRACK 33 AUDIO
    TITLE "P1Q_t_0388-0397_33"
    INDEX 01 00:56:17
  TRACK 34 AUDIO
    TITLE "P1Q_t_0388-0397_34"
    INDEX 01 01:00:22
  TRACK 35 AUDIO
    TITLE "P1Q_t_0388-0397_35"
    INDEX 01 01:00:42
  TRACK 36 AUDIO
    TITLE "P1Q_t_0388-0397_36"
    INDEX 01 01:05:22
  TRACK 37 AUDIO
    TITLE "P1Q_t_0388-0397_37"
    INDEX 01 01:05:67
  TRACK 38 AUDIO
    TITLE "P1Q_t_0388-0397_38"
    INDEX 01 01:06:70
  TRACK 39 AUDIO
    TITLE "P1Q_t_0388-0397_39"
    INDEX 01 01:07:16
  TRACK 40 AUDIO
    TITLE "P1Q_t_0388-0397_40"
    INDEX 01 01:09:47
  TRACK 41 AUDIO
    TITLE "P1Q_t_0388-0397_41"
    INDEX 01 01:09:66
  TRACK 42 AUDIO
    TITLE "P1Q_t_0388-0397_42"
    INDEX 01 01:16:37
  TRACK 43 AUDIO
    TITLE "P1Q_t_0388-0397_43"
    INDEX 01 01:17:07
  TRACK 44 AUDIO
    TITLE "P1Q_t_0388-0397_44"
    INDEX 01 01:18:20
  TRACK 45 AUDIO
    TITLE "P1Q_t_0388-0397_45"
    INDEX 01 01:18:42
  TRACK 46 AUDIO
    TITLE "P1Q_t_0388-0397_46"
    INDEX 01 01:20:17
  TRACK 47 AUDIO
    TITLE "P1Q_t_0388-0397_47"
    INDEX 01 01:20:37
  TRACK 48 AUDIO
    TITLE "P1Q_t_0388-0397_48"
    INDEX 01 01:26:71
  TRACK 49 AUDIO
    TITLE "P1Q_t_0388-0397_49"
    INDEX 01 01:27:41
  TRACK 50 AUDIO
    TITLE "P1Q_t_0388-0397_50"
    INDEX 01 01:28:48
  TRACK 51 AUDIO
    TITLE "P1Q_t_0388-0397_51"
    INDEX 01 01:28:72
  TRACK 52 AUDIO
    TITLE "P1Q_t_0388-0397_52"
    INDEX 01 01:32:09
  TRACK 53 AUDIO
    TITLE "P1Q_t_0388-0397_53"
    INDEX 01 01:32:30
  TRACK 54 AUDIO
    TITLE "P1Q_t_0388-0397_54"
    INDEX 01 01:37:16
  TRACK 55 AUDIO
    TITLE "P1Q_t_0388-0397_55"
    INDEX 01 01:37:63
  TRACK 56 AUDIO
    TITLE "P1Q_t_0388-0397_56"
    INDEX 01 01:39:22
  TRACK 57 AUDIO
    TITLE "P1Q_t_0388-0397_57"
    INDEX 01 01:39:46
  TRACK 58 AUDIO
    TITLE "P1Q_t_0388-0397_58"
    INDEX 01 01:40:59
  TRACK 59 AUDIO
    TITLE "P1Q_t_0388-0397_59"
    INDEX 01 01:41:04
  TRACK 60 AUDIO
    TITLE "P1Q_t_0388-0397_60"
    INDEX 01 01:47:34
